<?xml version="1.0" encoding="UTF-8" standalone="no"?>
<!DOCTYPE svg PUBLIC "-//W3C//DTD SVG 1.1//EN"
 "http://www.w3.org/Graphics/SVG/1.1/DTD/svg11.dtd">
<!-- Generated by graphviz version 2.26.3 (20100126.1600)
 -->
<!-- Title: AttrAccess Pages: 1 -->
<svg width="780pt" height="1422pt"
 viewBox="0.00 0.00 780.00 1422.00" xmlns="http://www.w3.org/2000/svg" xmlns:xlink="http://www.w3.org/1999/xlink">
<g id="graph1" class="graph" transform="scale(1 1) rotate(0) translate(4 1418)">
<title>AttrAccess</title>
<polygon fill="white" stroke="white" points="-4,5 -4,-1418 777,-1418 777,5 -4,5"/>
<!-- start -->
<g id="node1" class="node"><title>start</title>
<ellipse fill="none" stroke="black" cx="225" cy="-1383" rx="67.8823" ry="31.1127"/>
<text text-anchor="middle" x="225" y="-1388.4" font-family="Times Roman,serif" font-size="14.00">a.b</text>
<text text-anchor="middle" x="225" y="-1370.4" font-family="Times Roman,serif" font-size="14.00">res = NULL</text>
</g>
<!-- is_special -->
<g id="node2" class="node"><title>is_special</title>
<ellipse fill="none" stroke="black" cx="225" cy="-1283" rx="137.179" ry="31.1127"/>
<text text-anchor="middle" x="225" y="-1288.4" font-family="Times Roman,serif" font-size="14.00">b &#45; special method?</text>
<text text-anchor="middle" x="225" y="-1270.4" font-family="Times Roman,serif" font-size="14.00">__some_builtin_method__</text>
</g>
<!-- start&#45;&gt;is_special -->
<g id="edge2" class="edge"><title>start&#45;&gt;is_special</title>
<path fill="none" stroke="black" d="M225,-1351.91C225,-1343.16 225,-1333.51 225,-1324.26"/>
<polygon fill="black" stroke="black" points="228.5,-1324.07 225,-1314.07 221.5,-1324.07 228.5,-1324.07"/>
</g>
<!-- get_from_pyobject -->
<g id="node3" class="node"><title>get_from_pyobject</title>
<ellipse fill="none" stroke="black" cx="148" cy="-1073" rx="147.785" ry="18.3848"/>
<text text-anchor="middle" x="148" y="-1069.4" font-family="Times Roman,serif" font-size="14.00">res = PyObject&#45;&gt;some_field</text>
</g>
<!-- is_special&#45;&gt;get_from_pyobject -->
<g id="edge4" class="edge"><title>is_special&#45;&gt;get_from_pyobject</title>
<path fill="none" stroke="black" d="M213.638,-1252.01C198.707,-1211.29 172.694,-1140.35 158.307,-1101.11"/>
<polygon fill="black" stroke="black" points="161.558,-1099.81 154.829,-1091.62 154.986,-1102.22 161.558,-1099.81"/>
<text text-anchor="middle" x="219" y="-1221.4" font-family="Times Roman,serif" font-size="14.00">yes</text>
</g>
<!-- start_getattribute -->
<g id="node4" class="node"><title>start_getattribute</title>
<polygon fill="none" stroke="black" points="349,-1198 218,-1154 349,-1110 480,-1154 349,-1198"/>
<text text-anchor="middle" x="349" y="-1159.4" font-family="Times Roman,serif" font-size="14.00">__getattribute__</text>
<text text-anchor="middle" x="349" y="-1141.4" font-family="Times Roman,serif" font-size="14.00">overloaded?</text>
</g>
<!-- is_special&#45;&gt;start_getattribute -->
<g id="edge6" class="edge"><title>is_special&#45;&gt;start_getattribute</title>
<path fill="none" stroke="black" d="M254.386,-1252.43C270.951,-1235.2 291.859,-1213.45 309.804,-1194.78"/>
<polygon fill="black" stroke="black" points="312.37,-1197.16 316.777,-1187.52 307.324,-1192.31 312.37,-1197.16"/>
<text text-anchor="middle" x="296" y="-1221.4" font-family="Times Roman,serif" font-size="14.00">no</text>
</g>
<!-- end -->
<g id="node20" class="node"><title>end</title>
<ellipse fill="none" stroke="black" cx="465" cy="-19" rx="29.1951" ry="18.3848"/>
<text text-anchor="middle" x="465" y="-15.4" font-family="Times Roman,serif" font-size="14.00">end</text>
</g>
<!-- get_from_pyobject&#45;&gt;end -->
<g id="edge8" class="edge"><title>get_from_pyobject&#45;&gt;end</title>
<path fill="none" stroke="black" d="M143.246,-1054.31C134.787,-1019.35 118,-941.579 118,-875 118,-875 118,-875 118,-107 118,-44.0783 335.083,-25.6395 425.846,-20.68"/>
<polygon fill="black" stroke="black" points="426.207,-24.1661 436.012,-20.1524 425.844,-17.1755 426.207,-24.1661"/>
</g>
<!-- user_getattribute -->
<g id="node5" class="node"><title>user_getattribute</title>
<ellipse fill="none" stroke="black" cx="610" cy="-875" rx="161.927" ry="18.3848"/>
<text text-anchor="middle" x="610" y="-871.4" font-family="Times Roman,serif" font-size="14.00">res = A.__getattribute__(a, &#39;b&#39;)</text>
</g>
<!-- start_getattribute&#45;&gt;user_getattribute -->
<g id="edge10" class="edge"><title>start_getattribute&#45;&gt;user_getattribute</title>
<path fill="none" stroke="black" d="M407.338,-1129.53C448.961,-1109.57 503.765,-1077.84 540,-1036 574.087,-996.642 593.852,-938.12 603.23,-903.536"/>
<polygon fill="black" stroke="black" points="606.679,-904.178 605.812,-893.619 599.905,-902.415 606.679,-904.178"/>
<text text-anchor="middle" x="533" y="-1069.4" font-family="Times Roman,serif" font-size="14.00">yes</text>
</g>
<!-- is_data_descr -->
<g id="node6" class="node"><title>is_data_descr</title>
<polygon fill="none" stroke="black" points="349,-1036 167,-974 349,-912 531,-974 349,-1036"/>
<text text-anchor="middle" x="349" y="-988.4" font-family="Times Roman,serif" font-size="14.00">&#39;b&#39; in A</text>
<text text-anchor="middle" x="349" y="-970.4" font-family="Times Roman,serif" font-size="14.00">and</text>
<text text-anchor="middle" x="349" y="-952.4" font-family="Times Roman,serif" font-size="14.00">A.b is a data descriptor?</text>
</g>
<!-- start_getattribute&#45;&gt;is_data_descr -->
<g id="edge12" class="edge"><title>start_getattribute&#45;&gt;is_data_descr</title>
<path fill="none" stroke="black" d="M349,-1109.97C349,-1090.83 349,-1067.9 349,-1046.37"/>
<polygon fill="black" stroke="black" points="352.5,-1046.27 349,-1036.27 345.5,-1046.27 352.5,-1046.27"/>
<text text-anchor="middle" x="358" y="-1069.4" font-family="Times Roman,serif" font-size="14.00">no</text>
</g>
<!-- is_getattr -->
<g id="node15" class="node"><title>is_getattr</title>
<polygon fill="none" stroke="black" points="388,-408 146,-310 388,-212 630,-310 388,-408"/>
<text text-anchor="middle" x="388" y="-342.4" font-family="Times Roman,serif" font-size="14.00">hasattr(A,&#39;__getattr__&#39;)</text>
<text text-anchor="middle" x="388" y="-324.4" font-family="Times Roman,serif" font-size="14.00">and</text>
<text text-anchor="middle" x="388" y="-306.4" font-family="Times Roman,serif" font-size="14.00">( ExceptionTp == AttributeError</text>
<text text-anchor="middle" x="388" y="-288.4" font-family="Times Roman,serif" font-size="14.00">or</text>
<text text-anchor="middle" x="388" y="-270.4" font-family="Times Roman,serif" font-size="14.00">res == NULL)</text>
</g>
<!-- user_getattribute&#45;&gt;is_getattr -->
<g id="edge14" class="edge"><title>user_getattribute&#45;&gt;is_getattr</title>
<path fill="none" stroke="black" d="M650.065,-856.918C688.262,-836.622 740,-799.761 740,-749 740,-749 740,-749 740,-488 740,-405.413 661.881,-361.135 579.246,-337.4"/>
<polygon fill="black" stroke="black" points="579.985,-333.973 569.413,-334.676 578.116,-340.719 579.985,-333.973"/>
</g>
<!-- data_descr -->
<g id="node7" class="node"><title>data_descr</title>
<ellipse fill="none" stroke="black" cx="257" cy="-749" rx="70.2092" ry="18.3848"/>
<text text-anchor="middle" x="257" y="-745.4" font-family="Times Roman,serif" font-size="14.00">res = A.b(a)</text>
</g>
<!-- is_data_descr&#45;&gt;data_descr -->
<g id="edge16" class="edge"><title>is_data_descr&#45;&gt;data_descr</title>
<path fill="none" stroke="black" d="M325.841,-919.52C315.377,-894.705 302.934,-864.922 292,-838 283.748,-817.682 274.695,-794.639 267.863,-777.091"/>
<polygon fill="black" stroke="black" points="271.004,-775.511 264.121,-767.457 264.479,-778.045 271.004,-775.511"/>
<text text-anchor="middle" x="327" y="-871.4" font-family="Times Roman,serif" font-size="14.00">yes</text>
</g>
<!-- is_in_dict -->
<g id="node8" class="node"><title>is_in_dict</title>
<polygon fill="none" stroke="black" points="429,-838 301,-812 429,-786 557,-812 429,-838"/>
<text text-anchor="middle" x="429" y="-808.4" font-family="Times Roman,serif" font-size="14.00">&#39;b&#39; in a.__dict__?</text>
</g>
<!-- is_data_descr&#45;&gt;is_in_dict -->
<g id="edge18" class="edge"><title>is_data_descr&#45;&gt;is_in_dict</title>
<path fill="none" stroke="black" d="M375.417,-920.506C387.707,-895.619 401.938,-866.8 412.644,-845.12"/>
<polygon fill="black" stroke="black" points="415.858,-846.516 417.148,-836 409.582,-843.417 415.858,-846.516"/>
<text text-anchor="middle" x="414" y="-871.4" font-family="Times Roman,serif" font-size="14.00">no</text>
</g>
<!-- data_descr&#45;&gt;is_getattr -->
<g id="edge20" class="edge"><title>data_descr&#45;&gt;is_getattr</title>
<path fill="none" stroke="black" d="M254.197,-730.453C247.9,-683.666 235.791,-557.748 271,-462 280.571,-435.973 296.295,-410.795 313.157,-388.668"/>
<polygon fill="black" stroke="black" points="316.015,-390.694 319.411,-380.658 310.498,-386.386 316.015,-390.694"/>
</g>
<!-- in_dict -->
<g id="node9" class="node"><title>in_dict</title>
<ellipse fill="none" stroke="black" cx="610" cy="-551" rx="106.773" ry="18.3848"/>
<text text-anchor="middle" x="610" y="-547.4" font-family="Times Roman,serif" font-size="14.00">res = a.__dict__[&#39;b&#39;]</text>
</g>
<!-- is_in_dict&#45;&gt;in_dict -->
<g id="edge22" class="edge"><title>is_in_dict&#45;&gt;in_dict</title>
<path fill="none" stroke="black" d="M474.627,-795.084C510.607,-779.266 558.923,-752.028 585,-712 611.193,-671.794 613.65,-614.176 612.327,-579.877"/>
<polygon fill="black" stroke="black" points="615.807,-579.416 611.79,-569.613 608.817,-579.782 615.807,-579.416"/>
<text text-anchor="middle" x="581" y="-745.4" font-family="Times Roman,serif" font-size="14.00">yes</text>
</g>
<!-- is_any_descr -->
<g id="node10" class="node"><title>is_any_descr</title>
<polygon fill="none" stroke="black" points="429,-712 282,-650 429,-588 576,-650 429,-712"/>
<text text-anchor="middle" x="429" y="-664.4" font-family="Times Roman,serif" font-size="14.00">&#39;b&#39; in A</text>
<text text-anchor="middle" x="429" y="-646.4" font-family="Times Roman,serif" font-size="14.00">and</text>
<text text-anchor="middle" x="429" y="-628.4" font-family="Times Roman,serif" font-size="14.00">A.b is a descriptor?</text>
</g>
<!-- is_in_dict&#45;&gt;is_any_descr -->
<g id="edge24" class="edge"><title>is_in_dict&#45;&gt;is_any_descr</title>
<path fill="none" stroke="black" d="M429,-785.972C429,-768.753 429,-745.259 429,-722.644"/>
<polygon fill="black" stroke="black" points="432.5,-722.34 429,-712.34 425.5,-722.34 432.5,-722.34"/>
<text text-anchor="middle" x="438" y="-745.4" font-family="Times Roman,serif" font-size="14.00">no</text>
</g>
<!-- in_dict&#45;&gt;end -->
<g id="edge26" class="edge"><title>in_dict&#45;&gt;end</title>
<path fill="none" stroke="black" d="M657.587,-534.412C667.15,-529.174 676.304,-522.472 683,-514 705.393,-485.669 702,-471.112 702,-435 702,-435 702,-435 702,-107 702,-65.234 571.013,-36.9316 503.798,-25.1579"/>
<polygon fill="black" stroke="black" points="504.035,-21.6476 493.588,-23.4107 502.854,-28.5474 504.035,-21.6476"/>
</g>
<!-- any_descr -->
<g id="node11" class="node"><title>any_descr</title>
<ellipse fill="none" stroke="black" cx="350" cy="-488" rx="70.2092" ry="18.3848"/>
<text text-anchor="middle" x="350" y="-484.4" font-family="Times Roman,serif" font-size="14.00">res = A.b(a)</text>
</g>
<!-- is_any_descr&#45;&gt;any_descr -->
<g id="edge28" class="edge"><title>is_any_descr&#45;&gt;any_descr</title>
<path fill="none" stroke="black" d="M403.787,-598.297C390.432,-570.911 374.559,-538.361 363.533,-515.751"/>
<polygon fill="black" stroke="black" points="366.655,-514.167 359.126,-506.713 360.363,-517.236 366.655,-514.167"/>
<text text-anchor="middle" x="401" y="-547.4" font-family="Times Roman,serif" font-size="14.00">yes</text>
</g>
<!-- is_A_has_b -->
<g id="node12" class="node"><title>is_A_has_b</title>
<polygon fill="none" stroke="black" points="556,-514 438,-488 556,-462 674,-488 556,-514"/>
<text text-anchor="middle" x="556" y="-484.4" font-family="Times Roman,serif" font-size="14.00">hasattr(A, &#39;b&#39;)?</text>
</g>
<!-- is_any_descr&#45;&gt;is_A_has_b -->
<g id="edge30" class="edge"><title>is_any_descr&#45;&gt;is_A_has_b</title>
<path fill="none" stroke="black" d="M442.664,-593.682C449.909,-572.542 460.599,-549.436 476,-532 483.791,-523.179 493.793,-515.773 504.067,-509.704"/>
<polygon fill="black" stroke="black" points="506.051,-512.607 513.118,-504.713 502.671,-506.477 506.051,-512.607"/>
<text text-anchor="middle" x="485" y="-547.4" font-family="Times Roman,serif" font-size="14.00">no</text>
</g>
<!-- any_descr&#45;&gt;is_getattr -->
<g id="edge32" class="edge"><title>any_descr&#45;&gt;is_getattr</title>
<path fill="none" stroke="black" d="M353.995,-469.287C357.115,-454.67 361.719,-433.107 366.537,-410.537"/>
<polygon fill="black" stroke="black" points="370.021,-410.981 368.686,-400.471 363.175,-409.52 370.021,-410.981"/>
</g>
<!-- A_has_b -->
<g id="node13" class="node"><title>A_has_b</title>
<ellipse fill="none" stroke="black" cx="630" cy="-175" rx="56.7776" ry="18.3848"/>
<text text-anchor="middle" x="630" y="-171.4" font-family="Times Roman,serif" font-size="14.00">res = A.b</text>
</g>
<!-- is_A_has_b&#45;&gt;A_has_b -->
<g id="edge36" class="edge"><title>is_A_has_b&#45;&gt;A_has_b</title>
<path fill="none" stroke="black" d="M586.178,-468.569C605.258,-454.371 628.275,-433.234 639,-408 668.235,-339.218 650.622,-248.463 638.528,-203.2"/>
<polygon fill="black" stroke="black" points="641.877,-202.18 635.827,-193.483 635.133,-204.055 641.877,-202.18"/>
<text text-anchor="middle" x="640" y="-431.4" font-family="Times Roman,serif" font-size="14.00">yes</text>
</g>
<!-- is_A_has_b&#45;&gt;is_getattr -->
<g id="edge34" class="edge"><title>is_A_has_b&#45;&gt;is_getattr</title>
<path fill="none" stroke="black" d="M535.4,-466.174C516.981,-446.659 488.839,-416.842 462.064,-388.472"/>
<polygon fill="black" stroke="black" points="464.335,-385.78 454.926,-380.91 459.245,-390.585 464.335,-385.78"/>
<text text-anchor="middle" x="519" y="-431.4" font-family="Times Roman,serif" font-size="14.00">no</text>
</g>
<!-- A_has_b&#45;&gt;end -->
<g id="edge38" class="edge"><title>A_has_b&#45;&gt;end</title>
<path fill="none" stroke="black" d="M631.464,-156.347C632.14,-134.597 629.92,-98.7338 611,-76 584.262,-43.8729 537.045,-29.7782 503.553,-23.6428"/>
<polygon fill="black" stroke="black" points="504.077,-20.182 493.637,-21.9831 502.922,-27.086 504.077,-20.182"/>
</g>
<!-- getattr -->
<g id="node14" class="node"><title>getattr</title>
<ellipse fill="none" stroke="black" cx="465" cy="-107" rx="137.179" ry="31.1127"/>
<text text-anchor="middle" x="465" y="-112.4" font-family="Times Roman,serif" font-size="14.00">ClearException()</text>
<text text-anchor="middle" x="465" y="-94.4" font-family="Times Roman,serif" font-size="14.00">res = A.__getattr__(a, &#39;b&#39;)</text>
</g>
<!-- getattr&#45;&gt;end -->
<g id="edge44" class="edge"><title>getattr&#45;&gt;end</title>
<path fill="none" stroke="black" d="M465,-75.7267C465,-66.6653 465,-56.8161 465,-47.9063"/>
<polygon fill="black" stroke="black" points="468.5,-47.6205 465,-37.6205 461.5,-47.6205 468.5,-47.6205"/>
</g>
<!-- is_getattr&#45;&gt;getattr -->
<g id="edge40" class="edge"><title>is_getattr&#45;&gt;getattr</title>
<path fill="none" stroke="black" d="M420.32,-224.792C430.502,-197.95 441.276,-169.546 449.692,-147.357"/>
<polygon fill="black" stroke="black" points="452.99,-148.531 453.264,-137.94 446.445,-146.049 452.99,-148.531"/>
<text text-anchor="middle" x="458" y="-171.4" font-family="Times Roman,serif" font-size="14.00">yes</text>
</g>
<!-- is_getattr&#45;&gt;end -->
<g id="edge42" class="edge"><title>is_getattr&#45;&gt;end</title>
<path fill="none" stroke="black" d="M326.773,-236.688C293.924,-188.004 266.589,-124.391 301,-76 315.878,-55.0775 383.57,-36.7613 427.202,-26.8467"/>
<polygon fill="black" stroke="black" points="428.19,-30.2127 437.193,-24.6271 426.672,-23.3793 428.19,-30.2127"/>
<text text-anchor="middle" x="310" y="-103.4" font-family="Times Roman,serif" font-size="14.00">no</text>
</g>
</g>
</svg>
